<svg xmlns="http://www.w3.org/2000/svg" xmlns:xlink="http://www.w3.org/1999/xlink" width="1592" zoomAndPan="magnify" viewBox="0 0 1194 14.25" height="19" preserveAspectRatio="xMidYMid meet" version="1.0"><defs><clipPath id="b7e4f33ede"><path d="M 29.851562 0 L 1164.148438 0 L 1164.148438 13.539062 L 29.851562 13.539062 Z M 29.851562 0 " clip-rule="nonzero"/></clipPath><clipPath id="33b5b93492"><path d="M 504.882812 0.574219 L 690.132812 0.574219 L 690.132812 12.6875 L 504.882812 12.6875 Z M 504.882812 0.574219 " clip-rule="nonzero"/></clipPath><clipPath id="3b50624036"><path d="M 686 8 L 1164.148438 8 L 1164.148438 9 L 686 9 Z M 686 8 " clip-rule="nonzero"/></clipPath><clipPath id="9d487e3b1e"><path d="M 29.851562 8 L 508 8 L 508 9 L 29.851562 9 Z M 29.851562 8 " clip-rule="nonzero"/></clipPath></defs><g clip-path="url(#b7e4f33ede)"><path fill="#F1EDE7" d="M 29.851562 0 L 1164.148438 0 L 1164.148438 13.539062 L 29.851562 13.539062 Z M 29.851562 0 " fill-opacity="1" fill-rule="nonzero"/></g><g clip-path="url(#33b5b93492)"><path fill="#caad54" d="M 510.882812 8.976562 C 510.6875 9.558594 511.023438 10.15625 510.542969 10.585938 C 510.390625 10.472656 510.253906 9.949219 510.128906 9.015625 L 509.472656 9.015625 C 509.375 9.3125 509.28125 9.597656 509.183594 9.882812 C 509.117188 9.882812 509.046875 9.882812 508.976562 9.882812 C 508.878906 9.597656 508.78125 9.316406 508.664062 8.980469 C 508.167969 8.980469 507.625 8.941406 507.09375 8.992188 C 506.539062 9.039062 506.105469 9.375 505.71875 9.761719 C 505.464844 10.015625 505.207031 10.160156 504.886719 9.816406 C 505.054688 9.25 505.523438 8.945312 505.929688 8.617188 C 505.613281 8.164062 505.304688 7.71875 504.96875 7.234375 C 505.101562 7.078125 505.214844 6.9375 505.335938 6.792969 C 505.425781 6.84375 505.5 6.859375 505.527344 6.90625 C 505.625 7.066406 505.6875 7.257812 505.804688 7.402344 C 506.222656 7.910156 506.667969 8.347656 507.429688 8.238281 C 507.847656 8.179688 508.28125 8.230469 508.695312 8.230469 C 508.78125 7.648438 509.003906 7.367188 509.359375 7.378906 C 509.375 7.628906 509.390625 7.882812 509.410156 8.191406 C 509.617188 8.203125 509.820312 8.21875 510.042969 8.234375 C 510.101562 7.628906 510.15625 7.0625 510.214844 6.484375 C 510.660156 6.3125 510.773438 6.597656 510.796875 6.910156 C 510.828125 7.3125 510.804688 7.722656 510.804688 8.1875 C 511.023438 8.203125 511.210938 8.226562 511.394531 8.226562 C 526.996094 8.230469 542.597656 8.230469 558.199219 8.222656 C 559.125 8.222656 560.050781 8.15625 560.980469 8.136719 C 561.261719 8.132812 561.425781 8.019531 561.601562 7.789062 C 561.878906 7.421875 562.210938 7.089844 562.5625 6.792969 C 563.515625 5.980469 564.832031 6.488281 565.480469 7.351562 C 565.648438 7.570312 565.765625 7.824219 565.929688 8.097656 C 567.4375 8.097656 568.96875 8.109375 570.5 8.085938 C 570.707031 8.082031 570.9375 7.9375 571.121094 7.808594 C 572.355469 6.925781 573.621094 6.132812 575.160156 5.851562 C 576.140625 5.675781 577.023438 5.871094 577.875 6.320312 C 578.496094 6.648438 578.984375 7.121094 579.269531 7.773438 C 579.382812 8.035156 579.558594 8.105469 579.820312 8.101562 C 581.351562 8.097656 582.886719 8.105469 584.417969 8.089844 C 584.585938 8.085938 584.785156 7.988281 584.914062 7.871094 C 586.414062 6.484375 588.125 5.484375 590.105469 4.9375 C 591.128906 4.65625 592.160156 4.492188 593.210938 4.621094 C 594.25 4.746094 595.082031 5.304688 595.785156 6.0625 C 595.882812 6.171875 595.976562 6.285156 596.097656 6.425781 C 596.441406 5.929688 596.761719 5.460938 597.078125 5.003906 C 596.578125 4.386719 596.09375 3.820312 595.640625 3.226562 C 595.363281 2.859375 595.386719 2.84375 595.441406 2.324219 C 596.136719 2.269531 596.679688 1.953125 597.042969 1.332031 C 597.433594 0.671875 597.683594 0.648438 598.121094 1.359375 C 598.484375 1.957031 598.996094 2.269531 599.699219 2.3125 C 599.902344 2.886719 599.503906 3.25 599.222656 3.621094 C 598.871094 4.082031 598.46875 4.5 598.050781 4.980469 C 598.363281 5.441406 598.683594 5.910156 599.015625 6.398438 C 599.3125 6.121094 599.585938 5.863281 599.859375 5.609375 C 600.726562 4.792969 601.773438 4.523438 602.933594 4.589844 C 605.3125 4.730469 607.394531 5.644531 609.273438 7.0625 C 609.617188 7.324219 609.914062 7.640625 610.253906 7.898438 C 610.390625 8.007812 610.589844 8.089844 610.761719 8.089844 C 612.273438 8.105469 613.785156 8.097656 615.292969 8.101562 C 615.546875 8.101562 615.734375 8.066406 615.859375 7.792969 C 616.613281 6.148438 618.769531 5.429688 620.523438 5.957031 C 621.808594 6.34375 622.921875 7.023438 624 7.792969 C 624.199219 7.933594 624.453125 8.082031 624.679688 8.085938 C 626.191406 8.113281 627.699219 8.097656 629.074219 8.097656 C 629.484375 7.644531 629.792969 7.246094 630.15625 6.90625 C 631.199219 5.921875 632.636719 6.398438 633.390625 7.554688 C 633.679688 7.996094 633.964844 8.140625 634.457031 8.144531 C 636.398438 8.15625 638.339844 8.222656 640.28125 8.226562 C 654.671875 8.234375 669.066406 8.230469 683.457031 8.230469 L 684.332031 8.230469 C 684.332031 7.796875 684.316406 7.398438 684.335938 7 C 684.355469 6.550781 684.457031 6.46875 684.921875 6.472656 C 684.976562 7.019531 685.03125 7.570312 685.09375 8.191406 C 685.25 8.203125 685.453125 8.21875 685.710938 8.238281 C 685.734375 7.941406 685.761719 7.671875 685.785156 7.40625 C 686.148438 7.359375 686.363281 7.632812 686.417969 8.226562 C 687.027344 8.226562 687.652344 8.277344 688.265625 8.210938 C 688.785156 8.152344 689.089844 7.714844 689.378906 7.3125 C 689.488281 7.160156 689.566406 6.984375 689.691406 6.761719 C 689.863281 6.902344 690 7.015625 690.199219 7.175781 C 689.863281 7.667969 689.546875 8.132812 689.210938 8.628906 C 689.597656 8.921875 690.058594 9.238281 690.257812 9.792969 C 690.035156 10.089844 689.796875 10.085938 689.542969 9.867188 C 689.410156 9.757812 689.296875 9.628906 689.164062 9.519531 C 688.699219 9.136719 688.179688 8.929688 687.5625 8.972656 C 687.199219 8.996094 686.832031 8.976562 686.480469 8.976562 C 686.375 9.292969 686.277344 9.574219 686.183594 9.859375 C 685.660156 9.714844 685.796875 9.328125 685.714844 9.011719 L 685.035156 9.011719 C 684.746094 9.511719 685.261719 10.199219 684.636719 10.613281 C 684.085938 10.179688 684.476562 9.539062 684.242188 8.976562 C 683.988281 8.976562 683.714844 8.976562 683.4375 8.976562 C 670.234375 8.972656 657.03125 8.96875 643.824219 8.957031 C 640.746094 8.953125 637.667969 8.90625 634.585938 8.859375 C 634.148438 8.855469 633.957031 8.941406 633.757812 9.410156 C 633.257812 10.59375 632.3125 11.324219 631.007812 11.566406 C 629.792969 11.792969 628.601562 11.671875 627.496094 11.183594 C 626.765625 10.859375 626.128906 10.324219 625.464844 9.863281 C 625.164062 9.65625 624.917969 9.371094 624.613281 9.175781 C 624.371094 9.023438 624.082031 8.863281 623.808594 8.863281 C 621.394531 8.835938 618.976562 8.847656 616.558594 8.851562 C 616.453125 8.851562 616.351562 8.871094 616.222656 8.886719 C 616.226562 9.738281 616.617188 10.320312 617.320312 10.707031 C 617.652344 10.890625 618.019531 11.015625 618.351562 11.199219 C 618.480469 11.269531 618.558594 11.429688 618.660156 11.546875 C 618.511719 11.640625 618.367188 11.796875 618.214844 11.808594 C 617.09375 11.890625 615.679688 10.597656 615.582031 9.429688 C 615.566406 9.261719 615.566406 9.09375 615.554688 8.886719 L 607.523438 8.886719 C 607.523438 9.304688 607.496094 9.707031 607.53125 10.109375 C 607.628906 11.191406 606.210938 12.621094 605.125 12.644531 C 604.933594 12.652344 604.71875 12.644531 604.558594 12.5625 C 603.425781 11.976562 602.808594 10.304688 603.636719 9.285156 C 603.820312 9.058594 603.976562 8.882812 604.28125 9.179688 C 604.191406 9.425781 604.066406 9.675781 604.011719 9.9375 C 603.953125 10.222656 603.878906 10.539062 603.941406 10.808594 C 604.1875 11.84375 604.945312 12.136719 605.855469 11.585938 C 606.707031 11.074219 607.113281 10.101562 606.902344 9.152344 C 606.828125 8.820312 606.585938 8.847656 606.351562 8.847656 C 605.164062 8.847656 603.976562 8.847656 602.792969 8.847656 L 600.148438 8.847656 C 600.148438 9.207031 600.136719 9.535156 600.152344 9.863281 C 600.183594 10.363281 600.050781 10.78125 599.59375 11.050781 C 599.058594 11.367188 598.527344 11.242188 598.015625 11.003906 C 597.863281 10.933594 597.75 10.789062 597.679688 10.730469 C 597.234375 10.894531 596.832031 11.058594 596.425781 11.195312 C 595.773438 11.414062 594.910156 10.789062 594.988281 10.019531 C 595.023438 9.660156 594.992188 9.292969 594.992188 8.886719 C 594.925781 8.878906 594.785156 8.851562 594.644531 8.851562 C 592.722656 8.847656 590.804688 8.847656 588.882812 8.847656 C 588.253906 8.851562 588.242188 8.871094 588.234375 9.511719 C 588.21875 10.65625 588.699219 11.40625 589.707031 11.8125 C 590.132812 11.980469 590.558594 11.871094 590.832031 11.511719 C 591.25 10.960938 591.398438 10.371094 591.066406 9.71875 C 591.019531 9.625 590.96875 9.523438 590.953125 9.421875 C 590.9375 9.3125 590.957031 9.199219 590.960938 9.085938 C 591.09375 9.09375 591.296875 9.050781 591.355469 9.121094 C 591.546875 9.367188 591.765625 9.636719 591.839844 9.933594 C 592.066406 10.847656 591.539062 12.019531 590.722656 12.484375 C 590.207031 12.777344 589.65625 12.699219 589.191406 12.410156 C 588.214844 11.808594 587.484375 11.027344 587.609375 9.75 C 587.636719 9.476562 587.613281 9.199219 587.613281 8.886719 L 579.585938 8.886719 C 579.582031 9.523438 579.480469 10.128906 579.078125 10.628906 C 578.546875 11.289062 577.855469 11.6875 577.019531 11.816406 C 576.808594 11.847656 576.558594 11.851562 576.492188 11.578125 C 576.421875 11.285156 576.6875 11.238281 576.867188 11.140625 C 577.347656 10.875 577.847656 10.644531 578.296875 10.335938 C 578.773438 10.011719 578.882812 9.476562 578.9375 8.847656 C 578.703125 8.847656 578.492188 8.847656 578.285156 8.847656 C 576.042969 8.847656 573.796875 8.863281 571.554688 8.835938 C 571.082031 8.832031 570.738281 9 570.394531 9.277344 C 569.796875 9.761719 569.195312 10.25 568.574219 10.703125 C 567.832031 11.242188 566.988281 11.492188 566.070312 11.578125 C 565.449219 11.636719 564.855469 11.699219 564.222656 11.578125 C 562.824219 11.320312 561.832031 10.59375 561.339844 9.257812 C 561.199219 8.878906 560.972656 8.859375 560.648438 8.863281 C 558.085938 8.898438 555.523438 8.941406 552.960938 8.945312 C 539.214844 8.960938 525.472656 8.96875 511.730469 8.976562 C 511.453125 8.976562 511.175781 8.976562 510.882812 8.976562 Z M 606.394531 6.253906 C 606.355469 6.230469 606.320312 6.207031 606.285156 6.183594 C 606.3125 6.21875 606.339844 6.25 606.367188 6.285156 C 606.703125 6.886719 607.042969 7.492188 607.359375 8.058594 L 609.378906 8.058594 C 609.140625 7.863281 608.996094 7.707031 608.820312 7.605469 C 608.015625 7.148438 607.203125 6.703125 606.394531 6.253906 Z M 588.746094 6.257812 C 587.636719 6.621094 586.710938 7.273438 585.742188 8.082031 L 587.765625 8.082031 C 588.113281 7.460938 588.445312 6.871094 588.773438 6.28125 C 588.800781 6.25 588.828125 6.21875 588.855469 6.183594 C 588.820312 6.207031 588.78125 6.234375 588.746094 6.257812 Z M 588.574219 8.070312 L 595.3125 8.070312 C 595.449219 7.746094 595.589844 7.421875 595.714844 7.121094 C 594.492188 5.480469 592.886719 4.898438 590.96875 5.527344 C 589.785156 5.914062 589.039062 6.84375 588.574219 8.070312 Z M 599.421875 7.121094 C 599.554688 7.429688 599.691406 7.753906 599.828125 8.070312 L 606.566406 8.070312 C 606.09375 6.839844 605.347656 5.914062 604.164062 5.523438 C 602.242188 4.898438 600.644531 5.484375 599.421875 7.121094 Z M 565.765625 8.878906 C 565.371094 9.710938 564.601562 10.117188 563.800781 9.921875 C 563.789062 9.292969 564.652344 9.425781 564.746094 8.90625 L 561.90625 8.90625 C 561.976562 9.152344 561.988281 9.355469 562.085938 9.5 C 562.507812 10.152344 563.109375 10.601562 563.851562 10.800781 C 564.867188 11.074219 565.894531 10.917969 566.890625 10.667969 C 567.960938 10.394531 568.78125 9.6875 569.671875 8.878906 Z M 629.355469 8.902344 L 625.597656 8.902344 C 625.582031 8.941406 625.5625 8.984375 625.546875 9.023438 C 626.128906 9.445312 626.667969 9.941406 627.296875 10.265625 C 628.4375 10.847656 629.65625 11.035156 630.953125 10.839844 C 631.808594 10.710938 632.414062 10.273438 632.941406 9.671875 C 633.101562 9.488281 633.144531 9.199219 633.269531 8.886719 L 630.226562 8.886719 C 630.542969 9.109375 630.730469 9.261719 630.9375 9.386719 C 631.15625 9.523438 631.402344 9.625 631.316406 9.960938 C 630.46875 10.074219 629.78125 9.699219 629.355469 8.902344 Z M 578.660156 8.0625 C 578.410156 7.574219 578.09375 7.242188 577.699219 7.015625 C 576.910156 6.5625 576.101562 6.421875 575.183594 6.625 C 574.089844 6.867188 573.144531 7.363281 572.261719 8.0625 Z M 616.441406 8.054688 L 623.015625 8.054688 C 622.183594 7.445312 621.398438 7.050781 620.550781 6.777344 C 619.789062 6.527344 619.019531 6.414062 618.234375 6.652344 C 617.480469 6.882812 616.871094 7.296875 616.441406 8.054688 Z M 597.566406 5.542969 C 597.171875 6.121094 596.835938 6.609375 596.550781 7.027344 C 596.910156 7.773438 597.226562 8.429688 597.574219 9.152344 C 597.941406 8.382812 598.257812 7.714844 598.589844 7.015625 C 598.277344 6.5625 597.949219 6.09375 597.566406 5.542969 Z M 597.5625 4.433594 C 598.003906 3.929688 598.414062 3.460938 598.792969 3.027344 C 598.355469 2.632812 597.949219 2.265625 597.574219 1.929688 C 597.175781 2.289062 596.769531 2.652344 596.347656 3.027344 C 596.714844 3.453125 597.105469 3.90625 597.5625 4.433594 Z M 596.214844 7.898438 C 595.8125 8.429688 595.699219 8.992188 595.632812 9.546875 C 595.59375 9.84375 595.449219 10.238281 595.902344 10.4375 C 596.320312 10.621094 596.632812 10.425781 596.945312 10.210938 C 597.03125 10.148438 597.089844 10.054688 597.164062 9.976562 C 596.855469 9.296875 596.550781 8.628906 596.214844 7.898438 Z M 597.933594 10.066406 C 598.261719 10.222656 598.566406 10.402344 598.894531 10.507812 C 599.183594 10.601562 599.5 10.355469 599.519531 10.050781 C 599.566406 9.292969 599.363281 8.601562 598.933594 7.875 C 598.589844 8.628906 598.285156 9.300781 597.933594 10.066406 Z M 562.320312 8.042969 L 565.140625 8.042969 C 564.765625 7.484375 564.394531 7.109375 563.761719 7.148438 C 563.15625 7.191406 562.667969 7.425781 562.320312 8.042969 Z M 629.988281 8.054688 L 632.816406 8.054688 C 632.480469 7.429688 631.996094 7.195312 631.390625 7.148438 C 630.75 7.105469 630.378906 7.480469 629.988281 8.054688 Z M 629.988281 8.054688 " fill-opacity="1" fill-rule="nonzero"/></g><g clip-path="url(#3b50624036)"><path stroke-linecap="butt" transform="matrix(0.7125, 0, 0, 0.7125, 687.308057, 8.202579)" fill="none" stroke-linejoin="miter" d="M 0.000753515 0.49967 L 669.052335 0.49967 " stroke="#c6a953" stroke-width="1" stroke-opacity="1" stroke-miterlimit="4"/></g><g clip-path="url(#9d487e3b1e)"><path stroke-linecap="butt" transform="matrix(0.7125, 0, 0, 0.7125, 30.322439, 8.202579)" fill="none" stroke-linejoin="miter" d="M 0.00249757 0.49967 L 669.048597 0.49967 " stroke="#c6a953" stroke-width="1" stroke-opacity="1" stroke-miterlimit="4"/></g></svg>